# xmcd
#
# Track frame offsets:
#	150
#	13020
#	24843
#	36753
#	47319
#	56556
#	66957
#	78882
#	90556
#	99613
#	109885
#	121759
#	132078
#	142393
#	156328
#	170095
#	181903
#	192802
#	206522
#	219799
#
# Disc length: 3066 seconds
#
# Revision: 0
# Processed by: cddbd v1.5.2PL0 Copyright (c) Steve Scherf et al.
# Submitted via: FairStars CD Ripper 1.90
#
DISCID=0b0bf814
DTITLE=Patsy Cline - Country's Greatest Female Singers
DYEAR=2016
DGENRE=Country
TTITLE0=Patsy Cline - I Fall To Peices
TTITLE1=Dolly Parton - Making Believe
TTITLE2=Kitty Wells - Heartbreak USA
TTITLE3=Brenda Lee - Sweet Nothin's
TTITLE4=Loretta Lynn - Gonna Pack My Troubles
TTITLE5=June Carter - Juke Box Blues
TTITLE6=Skeeter Davis - The End Of The World
TTITLE7=Jean Shepard - A Dear John Letter
TTITLE8=Patsy Cline - Walkin' After Midnight
TTITLE9=Brenda Lee - My Baby Loves Western Guys
TTITLE10=Kitty Wells - Paying For That Backstreet Affair
TTITLE11=Loretta Lynn - I'm A Honky Tonk Girl
TTITLE12=Wanda Jackson - Let's Have A Party
TTITLE13=Brenda Lee - I Want To Be Wanted
TTITLE14=Patti Page - Tennessee Waltz
TTITLE15=Skeeter Davis - (I Can't Help You) I'm Falling Too
TTITLE16=Dolly Parton - It Wasn't God Who Made Honky Tonk Angels
TTITLE17=Patsy Cline - She's Got You
TTITLE18=Kitty Wells and Red Foley - One By One
TTITLE19=Loretta Lynn - The Girl That I Am Now
EXTD=
EXTT0=
EXTT1=
EXTT2=
EXTT3=
EXTT4=
EXTT5=
EXTT6=
EXTT7=
EXTT8=
EXTT9=
EXTT10=
EXTT11=
EXTT12=
EXTT13=
EXTT14=
EXTT15=
EXTT16=
EXTT17=
EXTT18=
EXTT19=
PLAYORDER=
